# xmcd
#
# Track frame offsets: 
#        150
#        15270
#        36417
#        57305
#        76882
#        79240
#        98157
#        114452
#        129987
#        147152
#        167420
#        180747
#        200002
#        203527
#        234100
#        263917
#        284072
#        309495
#
# Disc length: 4490 seconds
#
# Revision: 4
# Processed by: cddbd v1.5.1PL0 Copyright (c) Steve Scherf et al.
# Submitted via: ExactAudioCopy v0.95a5
#
DISCID=ee118812
DTITLE=Various Artist - New Blues Hits
DYEAR=1997
DGENRE=Blues
TTITLE0=Persuasions - Life Is a Ballgame
TTITLE1=Smokin' Joe Kubek - Can't See for Lookin'
TTITLE2=Smokey Wilson - You Don't Drink What I Drink
TTITLE3=Porky Cohen with Michelle Willson - Trombone Porky
TTITLE4=Magic Dick and Jay Geils and Bluestime - Hot Leftover No. 1
TTITLE5=Roomful of Blues - Running Out of Time
TTITLE6=Homes Brothers - Promised Land
TTITLE7=Irma Thomas - No Use Talkin'
TTITLE8=Jumpin' Johnny Sansone - The Talkin' Is Over (the Walkin' Has 
TTITLE8=Begun)
TTITLE9=Pat Boyack and the Prowlers - Longwallin'
TTITLE10=Tutu Jones - Check Out Yourself
TTITLE11=Marcia Ball - Let Me Play With Your Poodle
TTITLE12=Magic Dick and Jay Geils and Bluestime - Hot Leftover No. 3
TTITLE13=Andrew "Jr. Boy" Jones - I Need Time
TTITLE14=Johnny Adams - One Foot In the Blues
TTITLE15=Jimmy King - Soldier for the Blues
TTITLE16=Ruth Brown and Johnny Adams - I Don't Know
TTITLE17=Eddy Clearwater - Mean Case of the Blues
EXTD=LABEL =Rounder Records Corp.\nID =bban27\nUPC =011661-8527-23\n
EXTD=COPYRIGHT =1997\n*****\nThis cd has several titles ...\n- on the
EXTD=jewel case spine and the cd itself ="New Blues Hits"\n- on the 
EXTD=jewel case front cover ="New Blues Hits From Bullseye Blues and 
EXTD=Rounder"\n... so i used the version on the cd.
EXTT0=
EXTT1=
EXTT2=
EXTT3=
EXTT4=
EXTT5=
EXTT6=
EXTT7=
EXTT8=
EXTT9=
EXTT10=
EXTT11=
EXTT12=
EXTT13=
EXTT14=
EXTT15=
EXTT16=
EXTT17=
PLAYORDER=
